<?xml version="1.0" encoding="UTF-8"?>
<svg width="192px" height="192px" viewBox="0 0 192 192" version="1.1" xmlns="http://www.w3.org/2000/svg" xmlns:xlink="http://www.w3.org/1999/xlink">
    <!-- Generator: Sketch 46.2 (44496) - http://www.bohemiancoding.com/sketch -->
    <title>favicon</title>
    <desc>Created with Sketch.</desc>
    <defs></defs>
    <g id="Page-1" stroke="none" stroke-width="1" fill="none" fill-rule="evenodd">
        <g id="favicon" fill-rule="nonzero" fill="#000000">
            <g id="shield" transform="translate(12.000000, 0.000000)">
                <path d="M165.144,24.168 L85.144125,0.168 C84.39225,-0.055875 83.60025,-0.055875 82.848,0.168 L2.848125,24.168 C1.159875,24.672 0,26.232 0,28.000125 L0,116.00025 C0,151.37625 53.935875,182.84025 82.816125,191.824125 C83.200125,191.944125 83.60025,192 84,192 C84.39975,192 84.799875,191.944125 85.183875,191.824125 C114.064125,182.832 168,151.375875 168,115.999875 L168,28.000125 C168,26.232 166.840125,24.679875 165.144,24.168 Z M160.000125,115.999875 C160.000125,144.08775 115.49625,173.623875 84,183.80775 C52.504125,173.623875 7.999875,144.08775 7.999875,115.999875 L7.999875,30.976125 L84,8.176125 L160.000125,30.976125 L160.000125,115.999875 Z" id="Shape"></path>
            </g>
            <path d="M134.044881,63.2819681 C129.292878,58.5299652 123.001765,55.9327166 116.287397,55.9327166 C109.573028,55.9327166 103.262676,58.5492041 98.5106732,63.301207 L96.0288579,65.7830223 L93.5085649,63.2627292 C88.756562,58.5107263 82.426971,55.875 75.7126025,55.875 C69.0174729,55.875 62.7071209,58.4914874 57.9743568,63.2242515 C53.2223539,67.9762544 50.6058665,74.2866065 50.6251053,81.0009749 C50.6251053,87.7153434 53.2608317,94.0064566 58.0128346,98.7584595 L94.1434479,134.889073 C94.6436587,135.389284 95.3170194,135.658628 95.9711413,135.658628 C96.6252632,135.658628 97.2986239,135.408523 97.7988347,134.908312 L134.006404,98.8354151 C138.758406,94.0834121 141.374894,87.7730601 141.374894,81.0586916 C141.394133,74.3443231 138.796884,68.033971 134.044881,63.2819681 Z" id="Shape"></path>
        </g>
    </g>
</svg>